<?xml version="1.0" encoding="UTF-8" standalone="no"?>
<svg
   xmlns:dc="http://purl.org/dc/elements/1.1/"
   xmlns:cc="http://creativecommons.org/ns#"
   xmlns:rdf="http://www.w3.org/1999/02/22-rdf-syntax-ns#"
   xmlns:svg="http://www.w3.org/2000/svg"
   xmlns="http://www.w3.org/2000/svg"
   xmlns:sodipodi="http://sodipodi.sourceforge.net/DTD/sodipodi-0.dtd"
   xmlns:inkscape="http://www.inkscape.org/namespaces/inkscape"
   width="739pt"
   height="255pt"
   viewBox="0 0 739 255"
   version="1.1"
   id="svg3119"
   inkscape:version="0.48.4 r9939"
   sodipodi:docname="_LOGO_OK.svg">
  <metadata
     id="metadata3171">
    <rdf:RDF>
      <cc:Work
         rdf:about="">
        <dc:format>image/svg+xml</dc:format>
        <dc:type
           rdf:resource="http://purl.org/dc/dcmitype/StillImage" />
        <dc:title />
      </cc:Work>
    </rdf:RDF>
  </metadata>
  <defs
     id="defs3169" />
  <sodipodi:namedview
     pagecolor="#1f2238"
     bordercolor="#666666"
     borderopacity="1"
     objecttolerance="10"
     gridtolerance="10"
     guidetolerance="10"
     inkscape:pageopacity="0"
     inkscape:pageshadow="2"
     inkscape:window-width="1364"
     inkscape:window-height="706"
     id="namedview3167"
     showgrid="false"
     inkscape:zoom="1.8101934"
     inkscape:cx="165.89179"
     inkscape:cy="294.01631"
     inkscape:window-x="-8"
     inkscape:window-y="-8"
     inkscape:window-maximized="1"
     inkscape:current-layer="svg3119"
     borderlayer="true" />
  <path
     fill="#0099cc"
     d=" M 147.40 24.58 C 151.23 23.13 155.98 24.02 158.47 27.43 C 162.65 32.28 162.15 39.08 162.26 45.06 C 161.48 69.60 156.99 93.80 154.14 118.15 C 151.21 143.01 149.02 168.02 149.09 193.07 C 149.38 203.74 149.36 214.57 152.00 224.99 C 153.00 228.51 154.31 232.72 158.07 234.17 C 159.51 234.90 161.79 234.92 162.18 232.92 C 162.66 228.39 160.49 224.10 160.44 219.59 C 162.76 221.41 163.94 224.15 165.25 226.70 C 167.20 230.58 169.03 234.71 169.01 239.14 C 169.04 242.97 165.56 246.05 161.90 246.42 C 154.78 247.15 147.44 244.56 142.05 239.94 C 137.17 234.33 136.60 226.44 135.84 219.37 C 134.88 200.91 135.02 182.43 135.39 163.96 C 135.83 148.31 137.84 132.72 141.24 117.44 C 144.27 102.14 147.59 86.90 150.44 71.57 C 151.82 62.80 153.53 53.78 151.87 44.93 C 151.60 42.61 149.98 40.93 147.87 40.10 C 145.97 41.83 144.18 43.71 142.81 45.89 C 130.92 64.54 123.89 85.90 111.10 104.01 C 108.75 106.92 106.21 110.64 102.12 110.93 C 99.55 111.26 96.37 110.32 95.34 107.71 C 94.27 105.10 93.85 102.21 92.12 99.91 C 89.33 104.13 88.52 109.20 87.41 114.04 C 85.92 120.98 84.92 128.55 87.76 135.30 C 88.72 137.91 90.42 140.97 88.67 143.64 C 86.61 146.44 82.57 148.14 79.22 146.85 C 76.19 144.60 76.06 140.39 75.97 136.96 C 75.93 125.04 77.75 113.17 80.47 101.60 C 82.06 95.78 83.75 89.52 88.28 85.23 C 90.79 82.88 95.13 81.30 98.04 83.89 C 100.20 86.04 100.99 89.15 102.87 91.52 C 107.36 88.07 109.16 82.48 111.37 77.50 C 117.14 62.78 124.13 48.35 133.81 35.77 C 137.59 31.28 141.73 26.61 147.40 24.58 Z"
     id="path3127"
     style="fill:#009acc;fill-opacity:1;stroke:none" />
  <path
     fill="#0099cc"
     d=" M 710.44 61.37 C 712.14 56.96 713.64 52.28 717.00 48.81 C 719.54 52.33 717.87 56.90 717.61 60.86 C 712.98 88.24 704.98 114.89 698.64 141.89 C 696.49 151.36 693.80 160.75 692.78 170.43 C 697.54 170.87 701.11 167.15 705.40 165.78 C 702.51 171.74 696.93 176.17 691.00 178.88 C 688.16 180.06 683.92 181.19 681.83 178.18 C 679.11 173.86 680.40 168.51 681.52 163.89 C 686.93 142.66 692.76 121.54 698.51 100.40 C 702.16 87.29 705.83 74.17 710.44 61.37 Z"
     id="path3129" />
  <path
     fill="#0099cc"
     d=" M 536.35 57.10 C 540.11 54.89 543.59 58.87 546.42 60.91 C 546.26 77.10 539.60 92.11 534.68 107.24 C 543.25 107.40 551.29 101.90 559.96 104.13 C 562.84 104.75 564.17 107.60 565.39 109.98 C 561.58 111.53 558.45 114.44 554.43 115.46 C 545.71 117.74 537.02 120.09 528.32 122.39 C 523.64 139.05 516.40 155.85 518.72 173.53 C 527.54 173.55 529.39 162.44 536.06 158.81 C 539.87 159.85 539.80 165.42 539.86 168.63 C 536.57 173.89 533.16 179.41 528.01 183.05 C 524.16 185.74 518.66 187.07 514.46 184.50 C 508.67 178.99 506.23 170.79 506.21 162.96 C 506.31 149.82 511.30 137.32 511.88 124.23 C 509.53 121.59 504.43 118.37 507.21 114.36 C 510.22 112.82 513.71 112.82 516.98 112.23 C 524.15 97.37 531.96 82.37 534.40 65.85 C 535.02 62.95 534.36 59.53 536.35 57.10 Z"
     id="path3131" />
  <path
     fill="#0099cc"
     d=" M 590.01 71.02 C 592.20 68.67 595.88 71.09 595.96 73.90 C 596.40 81.48 589.88 87.46 590.25 95.03 C 590.46 98.86 595.65 99.26 596.24 102.91 C 592.02 102.59 586.73 102.76 583.73 99.29 C 581.06 94.61 582.76 88.92 583.95 84.04 C 585.38 79.50 586.61 74.53 590.01 71.02 Z"
     id="path3133" />
  <path
     fill="#0099cc"
     d=" M 208.05 111.08 C 216.02 108.11 225.40 108.58 232.65 113.22 C 234.75 114.58 237.08 116.37 237.36 119.06 C 237.68 122.09 235.42 124.51 233.35 126.38 C 233.24 123.82 235.28 119.52 231.98 118.20 C 225.50 117.11 218.64 117.87 212.66 120.65 C 205.63 123.84 198.72 127.79 193.57 133.66 C 187.50 140.32 184.28 148.94 181.51 157.36 C 181.13 159.38 179.92 161.78 181.23 163.68 C 183.61 164.79 186.33 164.53 188.88 164.33 C 194.92 163.72 200.92 162.56 206.68 160.61 C 219.18 156.47 229.23 147.46 238.63 138.59 C 242.44 135.20 245.80 130.55 251.10 129.56 C 251.68 143.06 244.27 155.53 244.64 169.00 C 244.48 171.69 247.94 171.93 249.61 170.67 C 251.38 169.32 252.86 167.62 254.52 166.14 C 254.49 174.16 245.27 178.74 238.28 176.56 C 234.42 174.77 234.02 169.83 234.45 166.13 C 234.80 161.66 237.62 157.96 238.58 153.67 C 233.70 156.16 230.10 160.40 225.88 163.79 C 218.09 170.27 208.69 174.78 198.75 176.77 C 191.03 178.34 183.06 179.74 175.17 178.62 C 171.37 178.09 167.21 175.99 166.28 171.94 C 165.27 166.65 167.03 161.35 168.52 156.32 C 172.09 145.78 176.05 134.99 183.51 126.51 C 189.87 118.97 198.98 114.48 208.05 111.08 Z"
     id="path3135" />
  <path
     fill="#0099cc"
     d=" M 371.15 111.15 C 379.56 107.94 389.59 108.64 397.02 113.94 C 398.99 115.33 400.89 117.48 400.66 120.07 C 400.40 122.68 398.50 124.69 396.72 126.44 C 396.68 124.09 397.52 121.59 396.74 119.31 C 394.86 117.16 391.57 117.94 389.04 117.76 C 380.61 117.60 372.97 121.72 365.98 125.97 C 357.69 131.01 351.62 139.12 348.18 148.11 C 346.41 152.93 343.88 157.75 343.98 163.00 C 345.38 164.76 347.97 164.44 349.99 164.49 C 361.80 163.63 373.82 160.63 383.66 153.78 C 390.90 148.77 397.60 142.99 403.80 136.74 C 406.90 133.84 409.95 130.42 414.28 129.49 C 414.98 138.91 411.14 147.86 409.33 156.97 C 408.52 161.45 407.00 166.19 408.39 170.69 C 412.30 173.19 415.18 168.23 417.84 166.16 C 417.75 174.18 408.54 178.76 401.55 176.53 C 397.96 175.00 397.43 170.51 397.66 167.09 C 397.80 162.25 400.62 158.18 402.07 153.71 C 397.52 155.66 394.26 159.51 390.55 162.63 C 377.67 174.23 359.99 178.82 343.00 179.01 C 338.39 178.89 332.71 178.17 330.24 173.70 C 327.97 168.71 329.97 163.12 331.24 158.13 C 334.94 146.82 339.04 135.16 347.12 126.15 C 353.42 118.87 362.28 114.47 371.15 111.15 Z"
     id="path3137" />
  <path
     fill="#0099cc"
     d=" M 619.15 116.18 C 627.20 111.93 636.23 107.87 645.56 109.59 C 650.59 110.58 655.95 112.61 659.07 116.89 C 661.33 120.35 658.39 124.17 655.85 126.47 C 655.71 123.83 657.51 120.10 654.80 118.29 C 643.22 115.75 631.94 121.22 622.66 127.66 C 615.28 132.84 610.13 140.64 606.99 148.99 C 605.35 153.50 603.06 158.01 603.11 162.90 C 604.37 164.76 606.98 164.42 608.95 164.49 C 620.35 163.71 631.92 160.92 641.58 154.62 C 648.10 150.23 654.21 145.24 659.85 139.78 C 663.98 135.94 667.72 131.21 673.26 129.37 C 674.42 134.17 672.68 139.01 671.78 143.70 C 669.97 152.08 666.75 160.38 667.08 169.06 C 667.07 171.49 670.10 171.94 671.79 170.87 C 673.74 169.52 675.24 167.63 677.05 166.09 C 676.90 173.94 668.21 178.51 661.20 176.74 C 657.25 175.44 656.52 170.60 656.82 167.01 C 657.01 162.19 659.82 158.13 661.26 153.66 C 655.03 156.60 650.88 162.40 645.24 166.19 C 633.44 175.01 618.52 178.37 604.04 179.02 C 598.85 179.03 592.16 178.74 589.34 173.58 C 587.21 168.56 589.13 163.06 590.43 158.09 C 593.13 149.67 596.17 141.26 600.73 133.65 C 605.17 126.33 611.47 120.05 619.15 116.18 Z"
     id="path3139" />
  <path
     fill="#0099cc"
     d=" M 571.66 127.86 C 572.90 123.11 573.77 118.01 576.93 114.07 C 579.34 114.30 581.76 114.51 584.17 114.77 C 584.43 120.70 582.44 126.36 580.82 131.97 C 577.51 142.80 574.96 153.87 573.53 165.11 C 572.77 169.56 572.33 174.23 570.20 178.28 C 568.57 180.77 565.29 179.57 563.04 178.81 C 561.39 173.78 562.73 168.48 563.66 163.44 C 566.30 151.58 568.96 139.72 571.66 127.86 Z"
     id="path3141" />
  <path
     fill="#0099cc"
     d=" M 290.99 125.82 C 300.77 123.37 312.13 124.36 320.06 131.08 C 324.71 134.89 325.70 141.29 325.66 146.96 C 325.46 158.76 322.61 170.37 318.45 181.37 C 317.23 185.36 315.42 189.49 316.07 193.74 C 317.42 196.32 320.20 194.59 322.23 194.08 C 321.05 197.53 319.67 202.80 315.04 202.50 C 308.64 201.47 303.64 195.54 303.12 189.14 C 301.76 175.83 308.09 163.27 308.41 150.07 C 308.44 147.40 307.13 144.50 304.40 143.69 C 298.08 141.44 290.43 140.52 284.59 144.49 C 279.26 148.11 274.98 153.05 270.82 157.92 C 267.75 161.46 265.35 166.02 260.88 167.99 C 257.83 169.16 255.29 165.79 255.75 162.98 C 256.44 155.44 260.57 148.78 264.33 142.40 C 270.05 133.03 280.72 128.30 290.99 125.82 Z"
     id="path3143" />
  <path
     fill="#0099cc"
     d=" M 438.17 132.15 C 447.93 126.63 459.55 123.22 470.79 125.22 C 478.14 126.76 486.35 130.93 488.07 138.94 C 490.24 149.10 487.99 159.60 485.59 169.53 C 483.78 177.42 479.40 184.74 479.15 192.94 C 479.72 196.18 483.32 195.07 485.34 193.99 C 484.49 197.17 483.54 201.34 479.93 202.40 C 476.14 202.95 472.70 200.46 470.21 197.88 C 465.44 192.68 465.77 184.98 466.69 178.46 C 468.22 169.64 470.70 160.98 471.68 152.06 C 472.01 149.04 471.29 145.15 468.12 143.89 C 461.42 141.26 453.06 140.46 447.00 145.07 C 440.18 150.16 434.85 156.91 429.63 163.56 C 427.69 165.74 425.34 168.46 422.12 168.16 C 419.95 167.57 418.81 165.14 418.99 163.03 C 419.14 159.48 420.52 156.14 421.90 152.93 C 425.64 144.92 430.17 136.62 438.17 132.15 Z"
     id="path3145" />
  <path
     fill="#666666"
     d=" M 495.66 204.72 C 496.51 200.57 503.41 201.71 502.95 205.93 C 503.06 217.97 502.99 230.01 502.99 242.04 C 503.43 244.81 500.77 247.47 498.01 246.46 C 495.86 245.90 495.60 243.52 495.10 241.74 C 491.04 246.82 483.09 248.34 477.79 244.31 C 471.40 239.36 470.65 230.01 472.77 222.75 C 474.61 216.47 481.57 212.80 487.86 214.21 C 490.83 214.64 493.20 216.61 495.40 218.51 C 495.51 213.92 494.95 209.27 495.66 204.72 Z"
     id="path3147" />
  <path
     fill="#666666"
     d=" M 562.04 205.07 C 562.80 202.78 565.51 201.46 567.79 202.33 C 569.79 202.96 570.28 205.31 571.02 207.01 C 574.31 216.71 577.56 226.42 580.83 236.13 C 584.62 225.68 587.77 214.99 591.60 204.56 C 592.63 201.34 597.49 201.36 598.97 204.20 C 600.21 206.19 598.95 208.46 598.40 210.46 C 594.60 220.66 590.84 230.88 587.09 241.11 C 586.22 243.53 584.65 246.20 581.83 246.53 C 578.79 247.18 575.70 245.27 574.75 242.36 C 570.74 231.91 567.07 221.32 563.13 210.85 C 562.52 208.99 561.61 207.06 562.04 205.07 Z"
     id="path3149" />
  <path
     fill="#666666"
     d=" M 609.34 202.39 C 612.34 201.06 615.82 203.77 615.43 207.01 C 615.61 218.00 615.43 229.01 615.51 240.01 C 615.46 242.28 615.39 245.33 612.85 246.27 C 609.97 247.65 606.41 245.24 606.72 242.04 C 606.51 231.04 606.72 220.02 606.62 209.01 C 606.58 206.59 606.66 203.43 609.34 202.39 Z"
     id="path3151" />
  <path
     fill="#666666"
     d=" M 685.39 202.51 C 688.63 201.14 692.63 202.95 693.73 206.30 C 697.88 216.49 701.92 226.73 706.09 236.92 C 706.81 238.82 707.68 240.74 707.79 242.81 C 707.52 246.07 702.84 248.04 700.61 245.41 C 698.55 242.47 697.68 238.91 696.33 235.64 C 690.62 235.64 684.90 235.63 679.19 235.65 C 677.76 239.07 677.00 242.89 674.72 245.88 C 671.74 248.22 666.75 244.80 668.24 241.16 C 672.06 230.52 676.50 220.11 680.48 209.52 C 681.57 206.91 682.45 203.61 685.39 202.51 Z"
     id="path3153" />
  <path
     fill="#666666"
     d=" M 629.38 203.44 C 632.46 202.46 635.78 203.03 638.97 202.88 C 644.91 202.94 651.62 202.31 656.57 206.29 C 662.53 210.88 664.20 218.95 663.81 226.09 C 663.60 232.19 661.58 238.71 656.51 242.50 C 652.10 245.89 646.27 245.95 640.97 245.91 C 637.34 245.81 633.66 246.20 630.08 245.55 C 627.56 245.05 627.06 242.20 627.12 240.06 C 627.07 229.68 627.12 219.30 627.09 208.93 C 627.09 206.94 627.27 204.36 629.38 203.44 Z"
     id="path3155" />
  <path
     fill="#ffffff"
     d=" M 636.00 210.00 C 640.73 210.15 645.93 209.26 650.22 211.77 C 654.65 214.97 655.09 221.03 654.85 226.04 C 654.56 230.50 653.22 235.82 648.78 237.86 C 644.72 239.41 640.25 238.59 636.01 238.77 C 635.99 229.18 636.00 219.59 636.00 210.00 Z"
     id="path3157" />
  <path
     fill="#ffffff"
     d=" M 681.57 228.88 C 683.55 223.15 685.64 217.45 687.65 211.73 C 689.78 217.43 691.85 223.16 693.91 228.89 C 689.79 228.90 685.68 228.90 681.57 228.88 Z"
     id="path3159" />
  <path
     fill="#666666"
     d=" M 512.80 221.69 C 516.20 214.36 525.85 212.25 532.93 214.99 C 538.69 217.17 542.59 223.84 541.00 229.90 C 540.26 231.92 537.75 232.12 535.93 232.28 C 530.32 232.52 524.70 232.24 519.09 232.41 C 519.67 234.97 520.15 237.88 522.41 239.56 C 525.46 242.05 530.17 241.45 532.98 238.86 C 534.90 237.63 536.36 234.94 538.97 235.52 C 540.88 235.88 541.37 238.10 540.60 239.65 C 539.00 243.53 534.81 245.55 530.90 246.29 C 525.19 247.28 518.49 246.19 514.61 241.51 C 510.12 236.08 509.96 227.93 512.80 221.69 Z"
     id="path3161" />
  <path
     fill="#ffffff"
     d=" M 485.27 220.41 C 489.71 218.80 493.98 222.84 494.60 227.07 C 495.62 231.81 494.50 238.65 489.05 240.07 C 484.55 241.34 480.57 237.31 480.13 233.06 C 479.36 228.49 480.29 222.20 485.27 220.41 Z"
     id="path3163" />
  <path
     fill="#ffffff"
     d=" M 521.65 221.63 C 524.22 218.68 529.55 218.99 531.79 222.21 C 532.91 223.79 533.14 225.77 533.61 227.61 C 528.79 227.65 523.97 227.68 519.15 227.57 C 519.76 225.52 520.07 223.22 521.65 221.63 Z"
     id="path3165" />
  <path
     style="fill:#009acc;fill-opacity:1;stroke:none"
     d="m 57.057233,6.217767 -1.1,0.175 -0.95,0.65 -1.525,1.7 c -1.402972,1.538078 -2.57477,3.972598 -3.675,6.65 -0.845196,2.056758 -1.419922,3.97164 -3.225,10.9 -1.131991,4.344904 -1.039764,4.163983 -2,4.3 -1.131119,0.160222 -3.607949,-0.04248 -4.975,-0.425 -1.476685,-0.413199 -3.610317,-1.32784 -5.25,-2.225 -0.704351,-0.385391 -3.969953,-2.637229 -7.275,-5.025 -5.894945,-4.258879 -7.021889,-4.9427 -8.15,-4.95 -0.830796,-0.0054 -1.81283,0.872686 -2.175,1.975 -0.650879,1.981035 -0.52803,13.054417 0.175,16.425 1.364631,6.542542 4.045194,12.56506 7.325,16.4 3.252025,3.802456 9.30831,8.794668 17.25,14.225 3.220327,2.201996 5.89189,4.07121 5.95,4.15 0.136207,0.184785 0.191643,0.182093 -10.2,1.25 -13.66497,1.404292 -17.929114,2.039724 -21.325,3.225 -2.670303,0.932025 -3.2481,1.708443 -3.25,4.4 l 0,1.5 0.875,0.975 c 0.471163,0.5324 2.618147,2.685392 4.775,4.775 7.938059,7.690584 8.423271,8.202112 14.125,15.050003 4.697125,5.64132 5.791037,6.81268 7.575,8.1 2.395799,1.7288 5.231645,3.16255 6.75,3.4 0.925537,0.1448 2.4642,0.12132 3.2,-0.05 0.900635,-0.20972 0.949859,-0.30917 4.825,-8 3.765922,-7.474075 4.68181,-9.140059 6.85,-12.475003 3.340616,-5.138256 4.258347,-6.786224 4.375,-7.875 0.146573,-1.368032 -0.195688,-2.29796 -0.95,-2.625 -1.286532,-0.557792 -3.048915,0.205648 -6.075,2.65 -3.212306,2.594776 -5.729684,5.250248 -6.925,7.275 -0.536351,0.908528 -1.89605,3.731944 -3.025,6.3 -2.17619,4.950283 -2.771871,6.035693 -3.325,6.125003 -0.210572,0.034 -0.853541,-0.33515 -1.65,-0.975 -1.006139,-0.80832 -2.534361,-2.59641 -6.775,-7.900003 -3.090563,-3.86524 -6.486936,-7.91064 -7.8,-9.275 -1.280826,-1.330872 -3.090037,-3.210288 -4,-4.15 l -1.65,-1.7 0.575,-0.125 c 0.31397,-0.06574 4.686158,-0.458189 9.725,-0.875 5.339011,-0.441641 10.200133,-0.910807 11.625,-1.15 4.855163,-0.815033 9.574611,-2.424636 12.15,-4.1 3.194179,-2.077902 4.30412,-3.78955 3.525,-5.5 -0.71646,-1.572886 -1.662349,-2.153462 -8.575,-5.2 -4.789203,-2.110694 -8.002372,-3.682787 -10.45,-5.15 -3.940241,-2.361946 -9.098863,-6.413939 -11.15,-8.75 -2.698077,-3.072868 -6.309206,-9.919864 -7.425,-14.075 -0.445457,-1.658766 -0.94484,-5.351138 -0.875,-6.425 l 0.05,-0.925 3.55,2.25 c 3.990825,2.509283 5.629822,3.345563 8.475,4.4 3.103875,1.150313 4.724027,1.477843 16.35,3.325 11.524609,1.831049 11.892756,1.913403 22.45,4.8 4.983248,1.362533 6.163904,1.63373 7.525,1.7 0.887912,0.04324 1.846568,0.03359 2.125,-0.025 0.27844,-0.05859 2.444592,-1.451126 4.8,-3.1 5.895016,-4.126707 7.057752,-4.818529 10,-6 2.821137,-1.13284 4.379637,-1.620503 6.599997,-2 1.74772,-0.298692 8.05499,-0.520534 8.525,-0.3 0.27661,0.129786 -0.10778,0.718133 -2.65,4.025 -3.10481,4.038658 -4.56825,6.281073 -5.275,8.1 -0.22945,0.590542 -1.03705,3.299424 -1.8,6.025 -2.10145,7.507307 -2.12143,7.558121 -5.224997,13.475 -2.714496,5.175115 -2.909912,5.675996 -2.8,6.95 0.114968,1.332608 0.722336,1.89538 2.075,1.875 3.516397,-0.05297 8.904597,-5.299419 11.174997,-10.875 0.28917,-0.710143 1.21121,-3.705617 2.075,-6.675 2.75954,-9.486171 3.1968,-10.69011 4.5,-12.375 0.79888,-1.032843 1.15625,-1.373689 6.325,-6.075 5.27408,-4.797118 5.46388,-4.979369 5.6,-5.55 0.21448,-0.899123 -0.17688,-1.7196 -1.2,-2.475 -1.68584,-1.244715 -5.79016,-2.681107 -9.7,-3.4 -1.36009,-0.250078 -2.52472,-0.3013 -6.125,-0.3 -5.41086,0.002 -5.23713,-0.03573 -14.549997,2.75 -3.648888,1.091483 -6.899912,2.00731 -7.225,2.05 -0.516016,0.06776 -1.028872,-0.197423 -4.125,-2.175 -1.95052,-1.245845 -6.474043,-4.107919 -10.05,-6.35 -10.112795,-6.340611 -9.646748,-5.905078 -13.15,-11.85 l -2.15,-3.675 -1.15,-0.775 -0.95,-0.4 z m -1.225,13.4 c 0.409628,0 15.500547,9.549022 19.2,12.15 3.493128,2.455913 6.271448,5.030016 5.925,5.5 -0.236576,0.320934 -1.338416,0.155343 -6.1,-0.925 -16.290756,-3.696178 -20.4253,-4.64461 -20.475,-4.7 -0.08028,-0.08948 0.219733,-3.857741 0.575,-7.375 0.316336,-3.131865 0.595779,-4.65 0.875,-4.65 z"
     id="path4304"
     inkscape:connector-curvature="0" />
  <path
     style="fill:#00ffff;stroke:#00ffff;stroke-width:0.67132992;stroke-opacity:1"
     d=""
     id="path3970"
     inkscape:connector-curvature="0"
     transform="scale(0.8,0.8)" />
  <g
     inkscape:groupmode="layer"
     id="layer1"
     inkscape:label="Paloma"
     style="display:inline" />
</svg>
