<?xml version="1.0" encoding="UTF-8" standalone="no"?>
<!-- Created with Inkscape (http://www.inkscape.org/) -->

<svg
   xmlns:dc="http://purl.org/dc/elements/1.1/"
   xmlns:cc="http://creativecommons.org/ns#"
   xmlns:rdf="http://www.w3.org/1999/02/22-rdf-syntax-ns#"
   xmlns:svg="http://www.w3.org/2000/svg"
   xmlns="http://www.w3.org/2000/svg"
   xmlns:sodipodi="http://sodipodi.sourceforge.net/DTD/sodipodi-0.dtd"
   xmlns:inkscape="http://www.inkscape.org/namespaces/inkscape"
   id="svg2"
   version="1.1"
   inkscape:version="0.48.2 r9819"
   width="923.75"
   height="318.75"
   xml:space="preserve"
   sodipodi:docname="_LOGO_OK_BN.svg"><sodipodi:namedview
     pagecolor="#ffffff"
     bordercolor="#666666"
     borderopacity="1"
     objecttolerance="10"
     gridtolerance="10"
     guidetolerance="10"
     inkscape:pageopacity="0"
     inkscape:pageshadow="2"
     inkscape:window-width="1366"
     inkscape:window-height="705"
     id="namedview4"
     showgrid="false"
     inkscape:zoom="0.35832206"
     inkscape:cx="461.875"
     inkscape:cy="159.375"
     inkscape:window-x="-4"
     inkscape:window-y="-4"
     inkscape:window-maximized="1"
     inkscape:current-layer="g10" /><metadata
     id="metadata8"><rdf:RDF><cc:Work
         rdf:about=""><dc:format>image/svg+xml</dc:format><dc:type
           rdf:resource="http://purl.org/dc/dcmitype/StillImage" /><dc:title></dc:title></cc:Work></rdf:RDF></metadata><defs
     id="defs6" /><g
     transform="matrix(1.25,0,0,-1.25,0,318.75)"
     inkscape:label="_LOGO_OK"
     inkscape:groupmode="layer"
     id="g10"><g
       id="g12"
       inkscape:export-filename="D:\IGLESIA\imagenes\Logos\LOGOBN.png"
       inkscape:export-xdpi="90"
       inkscape:export-ydpi="90"><path
         id="path14"
         style="fill:#ffffff;fill-opacity:1;fill-rule:nonzero;stroke:none"
         d="m 0,255 58.672,0 c -0.012,-0.621 -0.051,-1.871 -0.07,-2.488 l -1.211,-0.051 c 0.05,-1.301 0.097,-2.59 0.16,-3.891 -0.5,-0.34 -1.492,-1.039 -1.981,-1.379 -0.609,-2.761 -1.148,-5.531 -1.742,-8.293 -1.777,-4.628 -1.226,-9.628 -1.328,-14.468 -4.301,-0.071 -8.77,-0.121 -12.691,1.929 -0.559,0.051 -1.668,0.161 -2.231,0.219 -0.066,0.641 -0.219,1.922 -0.289,2.563 -1.098,0.14 -2.199,0.269 -3.301,0.398 -2.308,2.699 -4.828,5.223 -7.066,7.973 -0.363,-0.043 -1.082,-0.102 -1.442,-0.133 -0.019,1.301 -0.039,2.601 -0.05,3.902 -0.95,0.188 -1.899,0.391 -2.852,0.59 0.192,-5.301 -0.168,-10.609 0.051,-15.902 0.422,-3.5 1.16,-6.957 1.223,-10.5 0.418,0.019 1.257,0.062 1.679,0.09 0.059,-1.7 0.117,-3.399 0.168,-5.098 0.371,0.008 1.102,0.008 1.461,0.019 0.539,-2.878 1.531,-5.691 3.32,-8.039 5.09,-6.89 11.641,-12.742 19.11,-16.953 2.719,-1.629 5.859,-2.187 8.988,-2.226 -0.058,-0.84 -0.117,-1.672 -0.18,-2.512 -3.636,-2.41 -8.007,-3.52 -12.367,-3.27 -6.41,0.348 -12.679,-1.339 -19.09,-1.171 -2.48,-1.868 -5.613,-1.957 -8.589,-2.059 -0.012,-1.359 -0.024,-2.719 -0.032,-4.09 3.039,-3.25 6.692,-5.82 10.02,-8.711 2.941,-4.828 6.961,-8.89 9.629,-13.879 1.871,-6.179 6.679,-10.851 12.16,-13.98 l 3.152,0.031 c 0.047,1.219 0.11,2.449 0.168,3.668 0.262,0.383 0.789,1.141 1.063,1.52 0.058,0.851 0.187,2.562 0.25,3.41 3.758,5.57 4.226,12.922 9.078,17.82 1.34,1.672 3.34,3 3.82,5.191 -1.519,2.872 -3.988,-0.089 -5.351,-1.558 -5.43,-7.363 -8.989,-16.242 -9.989,-25.344 l -4.468,0.063 c -3.731,4.07 -7.903,8.289 -8.563,14.058 -2.918,2.86 -5.359,6.129 -7.258,9.75 -1.84,3.629 -5.972,4.949 -9.332,6.762 -0.097,1.141 -0.199,2.277 -0.308,3.41 10.379,0.07 20.629,2.277 31.007,2.219 0.743,0.601 1.473,1.211 2.204,1.808 0.519,0.114 1.558,0.313 2.07,0.411 1.508,1.222 3.078,2.363 4.738,3.371 0.102,1.422 0.18,2.851 0.262,4.281 l -2.723,0.16 C 48.988,188.48 39.5,195.66 31.871,204.328 c -0.32,1.363 -0.769,2.692 -1.781,3.711 -0.84,1.109 -1.621,2.27 -2.328,3.473 -0.153,1.379 -0.332,2.758 -0.5,4.136 -0.582,0.68 -1.16,1.372 -1.75,2.051 -0.071,2.981 -0.133,5.961 -0.16,8.93 -0.493,-0.109 -1.481,-0.328 -1.973,-0.449 -0.008,3.218 -0.051,6.429 -0.09,9.64 0.949,-0.101 2.852,-0.289 3.789,-0.39 3.352,-7.391 11.172,-11.782 18.902,-13.231 3.532,-1.16 7.29,-0.609 10.899,-1.238 8.699,-1.449 17.73,-3.172 25.043,-8.449 0.797,-0.043 2.418,-0.114 3.226,-0.141 3.653,4.5 7.563,9.117 12.883,11.699 2.321,1.2 5.278,1.16 7.117,3.211 5.122,0.25 10.25,0.09 15.383,0.129 -0.011,-1.281 -0.019,-2.558 -0.019,-3.84 -0.614,-0.07 -1.832,-0.191 -2.442,-0.261 -3.539,-3.7 -7.422,-7.239 -9.41,-12.079 -0.101,-0.8 -0.301,-2.41 -0.398,-3.21 -1.852,-5.282 -1.063,-11.079 -3.211,-16.27 -1.481,-4.609 -5.289,-7.898 -7.16,-12.309 l 3.48,-0.031 c 2.649,3.192 4.949,6.641 6.899,10.289 1.191,5.442 2.14,10.93 2.609,16.481 1.351,8.629 8.621,14.55 15.652,18.8 0,0.758 -0.011,1.52 -0.019,2.27 -0.653,0.102 -1.942,0.281 -2.59,0.379 -6.844,3.941 -15.082,3.141 -22.492,1.562 -0.692,-0.531 -1.371,-1.062 -2.059,-1.601 l -2.242,-0.36 c -0.391,-0.339 -1.18,-1.031 -1.578,-1.371 -1.531,-0.769 -3.031,-1.589 -4.5,-2.461 -0.961,0.071 -1.922,0.141 -2.879,0.223 -2.711,5.27 -7.813,8.551 -12.621,11.699 -0.531,0.102 -1.602,0.282 -2.129,0.379 -1.031,0.891 -2.063,1.789 -3.082,2.68 -0.629,0.019 -1.871,0.051 -2.5,0.07 -1.86,2.332 -3.621,4.742 -5.281,7.223 -0.008,0.719 -0.028,2.168 -0.039,2.887 -0.711,0.652 -1.43,1.293 -2.141,1.941 0.121,1.5 0.269,3 0.441,4.5 L 739,255 739,0 0,0 0,255 z" /><path
         id="path16"
         style="fill:#ffffff;fill-opacity:1;fill-rule:nonzero;stroke:none"
         d="m 57.078,246.648 c 0.942,-0.019 2.832,-0.039 3.774,-0.046 l -0.563,-2.122 1.223,0.129 c 0,-1.418 0,-2.839 0.008,-4.257 0.5,0.058 1.5,0.199 2,0.269 -0.04,-0.57 -0.122,-1.711 -0.168,-2.281 0.57,0.051 1.707,0.148 2.269,0.199 -0.051,-0.5 -0.152,-1.488 -0.199,-1.988 0.777,-0.02 2.34,-0.063 3.117,-0.071 l -0.07,-1.359 c 0.429,0.129 1.293,0.41 1.722,0.539 -0.019,-2.039 1.848,-2.09 3.387,-2.34 l -0.187,-0.73 c 4.89,-1.961 8.379,-6.289 11.929,-10.031 0.328,-0.68 1,-2.047 1.328,-2.731 -1.007,-1.109 -2.027,-2.219 -3.046,-3.328 -0.461,0.02 -1.391,0.07 -1.852,0.09 -1.262,0.961 -2.559,1.98 -4.199,2.109 l -0.153,0.602 c -1.937,0.609 -3.898,1.179 -5.929,1.429 l -0.047,1.071 c -0.5,-0.172 -1.481,-0.512 -1.981,-0.68 l 0.188,1.34 c -2.418,0.027 -4.828,0.078 -7.238,0.078 l 0.23,0.949 c -2.48,-0.027 -4.949,-0.008 -7.422,-0.008 l 0.672,1.348 -1.41,-0.59 c 0.039,4.184 0.109,8.371 0.008,12.551 l 1.39,-0.418 c -0.199,0.551 -0.609,1.668 -0.808,2.231 0.347,-0.024 1.039,-0.063 1.39,-0.09 0.008,2.437 0.039,4.879 0.039,7.316 l 1.489,-0.648 -0.891,1.468 z" /><path
         id="path18"
         style="fill:#000000;fill-opacity:1;fill-rule:nonzero;stroke:none"
         d="m 147.398,230.422 c 3.832,1.449 8.582,0.558 11.071,-2.852 4.179,-4.851 3.679,-11.648 3.793,-17.629 -0.782,-24.543 -5.274,-48.742 -8.121,-73.089 -2.93,-24.864 -5.121,-49.872 -5.051,-74.922 0.289,-10.668 0.269,-21.5 2.91,-31.918 1,-3.524 2.309,-7.731 6.07,-9.184 1.442,-0.726 3.719,-0.75 4.11,1.25 0.48,4.531 -1.692,8.82 -1.739,13.332 2.321,-1.82 3.5,-4.558 4.809,-7.109 1.949,-3.879 3.781,-8.012 3.762,-12.442 0.027,-3.828 -3.453,-6.91 -7.114,-7.281 -7.117,-0.726 -14.457,1.863 -19.847,6.481 -4.879,5.613 -5.449,13.5 -6.211,20.57 -0.961,18.461 -0.82,36.941 -0.449,55.41 0.437,15.652 2.449,31.242 5.847,46.52 3.032,15.3 6.352,30.543 9.203,45.871 1.379,8.769 3.09,17.789 1.43,26.64 -0.269,2.321 -1.891,4 -4,4.828 -1.902,-1.726 -3.691,-3.609 -5.062,-5.789 -11.887,-18.648 -18.918,-40.007 -31.707,-58.121 -2.352,-2.91 -4.891,-6.629 -8.981,-6.918 -2.57,-0.332 -5.75,0.61 -6.781,3.219 -1.07,2.609 -1.488,5.5 -3.219,7.801 -2.793,-4.219 -3.601,-9.289 -4.711,-14.129 -1.488,-6.941 -2.488,-14.512 0.352,-21.262 0.957,-2.609 2.66,-5.668 0.91,-8.34 -2.063,-2.8 -6.102,-4.5 -9.453,-3.211 -3.028,2.25 -3.16,6.461 -3.25,9.891 -0.039,11.922 1.781,23.789 4.5,35.359 1.59,5.821 3.281,12.082 7.812,16.372 2.508,2.351 6.848,3.929 9.758,1.339 2.16,-2.148 2.949,-5.257 4.832,-7.629 4.488,3.45 6.289,9.04 8.5,14.02 5.77,14.719 12.758,29.148 22.438,41.73 3.781,4.489 7.921,9.161 13.589,11.192 z" /><path
         id="path20"
         style="fill:#000000;fill-opacity:1;fill-rule:nonzero;stroke:none"
         d="m 710.441,193.629 c 1.7,4.41 3.2,9.09 6.559,12.562 2.539,-3.519 0.871,-8.089 0.609,-12.05 -4.629,-27.379 -12.629,-54.032 -18.968,-81.032 -2.153,-9.468 -4.84,-18.859 -5.86,-28.539 4.758,-0.441 8.328,3.282 12.617,4.649 C 702.512,83.262 696.93,78.828 691,76.121 c -2.84,-1.18 -7.078,-2.312 -9.172,0.699 -2.719,4.321 -1.43,9.668 -0.308,14.289 5.41,21.231 11.242,42.352 16.992,63.493 3.648,13.109 7.316,26.226 11.929,39.027 z" /><path
         id="path22"
         style="fill:#000000;fill-opacity:1;fill-rule:nonzero;stroke:none"
         d="m 536.352,197.898 c 3.757,2.211 7.238,-1.769 10.07,-3.808 -0.16,-16.192 -6.82,-31.199 -11.742,-46.328 8.57,-0.16 16.609,5.34 25.281,3.109 2.879,-0.621 4.211,-3.473 5.43,-5.851 -3.813,-1.551 -6.942,-4.461 -10.961,-5.481 -8.719,-2.277 -17.41,-4.629 -26.11,-6.93 -4.679,-16.66 -11.922,-33.461 -9.601,-51.14 8.82,-0.02 10.672,11.09 17.34,14.722 3.812,-1.043 3.742,-6.613 3.8,-9.82 C 536.57,81.109 533.16,75.59 528.012,71.949 524.16,69.262 518.66,67.93 514.461,70.5 c -5.789,5.512 -8.231,13.711 -8.25,21.539 0.098,13.141 5.09,25.641 5.668,38.731 -2.348,2.64 -7.449,5.859 -4.668,9.871 3.008,1.539 6.5,1.539 9.769,2.129 7.168,14.859 14.981,29.859 17.418,46.378 0.622,2.903 -0.039,6.321 1.954,8.75 z" /><path
         id="path24"
         style="fill:#000000;fill-opacity:1;fill-rule:nonzero;stroke:none"
         d="m 590.012,183.98 c 2.187,2.348 5.867,-0.07 5.949,-2.878 0.437,-7.582 -6.082,-13.563 -5.711,-21.133 0.211,-3.828 5.398,-4.231 5.988,-7.879 -4.218,0.32 -9.508,0.148 -12.508,3.621 -2.671,4.68 -0.968,10.367 0.219,15.25 1.43,4.539 2.66,9.508 6.063,13.019 z" /><path
         id="path26"
         style="fill:#000000;fill-opacity:1;fill-rule:nonzero;stroke:none"
         d="m 208.051,143.922 c 7.969,2.969 17.347,2.5 24.597,-2.141 2.102,-1.359 4.43,-3.152 4.711,-5.84 0.321,-3.031 -1.937,-5.453 -4.007,-7.32 -0.114,2.559 1.929,6.859 -1.372,8.18 -6.48,1.09 -13.339,0.328 -19.32,-2.449 -7.031,-3.192 -13.941,-7.141 -19.09,-13.012 -6.07,-6.66 -9.289,-15.281 -12.058,-23.699 -0.383,-2.02 -1.59,-4.422 -0.282,-6.321 2.379,-1.109 5.098,-0.851 7.649,-0.648 6.043,0.609 12.043,1.769 17.801,3.719 12.5,4.14 22.55,13.148 31.949,22.019 3.812,3.391 7.172,8.039 12.473,9.031 0.578,-13.5 -6.832,-25.972 -6.461,-39.441 -0.161,-2.691 3.3,-2.93 4.968,-1.672 1.77,1.352 3.25,3.051 4.911,4.531 -0.032,-8.019 -9.25,-12.597 -16.239,-10.418 -3.859,1.789 -4.261,6.731 -3.832,10.43 0.352,4.469 3.172,8.168 4.129,12.457 C 233.699,98.84 230.102,94.602 225.879,91.211 218.09,84.73 208.691,80.219 198.75,78.23 c -7.719,-1.57 -15.691,-2.968 -23.578,-1.851 -3.801,0.531 -7.961,2.633 -8.891,6.68 -1.011,5.293 0.75,10.589 2.239,15.621 3.57,10.539 7.531,21.332 14.992,29.808 6.359,7.543 15.468,12.032 24.539,15.434 z" /><path
         id="path28"
         style="fill:#000000;fill-opacity:1;fill-rule:nonzero;stroke:none"
         d="m 371.148,143.852 c 8.411,3.207 18.442,2.507 25.872,-2.793 1.968,-1.387 3.871,-3.539 3.64,-6.129 -0.262,-2.61 -2.16,-4.621 -3.941,-6.371 -0.039,2.351 0.801,4.851 0.019,7.132 -1.879,2.149 -5.168,1.368 -7.699,1.547 -8.43,0.16 -16.07,-3.957 -23.059,-8.207 -8.289,-5.043 -14.359,-13.152 -17.8,-22.14 -1.77,-4.821 -4.301,-9.641 -4.2,-14.891 1.399,-1.762 3.989,-1.441 6.008,-1.488 11.813,0.859 23.832,3.859 33.672,10.707 7.238,5.011 13.942,10.793 20.141,17.043 3.097,2.898 6.148,6.316 10.48,7.25 0.699,-9.422 -3.14,-18.371 -4.953,-27.481 -0.808,-4.48 -2.328,-9.222 -0.937,-13.722 3.91,-2.5 6.789,2.461 9.449,4.531 -0.09,-8.02 -9.301,-12.602 -16.289,-10.371 -3.59,1.531 -4.121,6.019 -3.891,9.441 0.141,4.84 2.961,8.91 4.41,13.379 -4.55,-1.949 -7.808,-5.801 -11.519,-8.918 C 377.672,80.77 359.988,76.18 343,75.988 c -4.609,0.121 -10.289,0.84 -12.762,5.313 -2.269,4.988 -0.269,10.578 1,15.57 3.703,11.309 7.801,22.969 15.883,31.981 6.301,7.277 15.16,11.679 24.027,15 z" /><path
         id="path30"
         style="fill:#000000;fill-opacity:1;fill-rule:nonzero;stroke:none"
         d="m 619.148,138.82 c 8.051,4.25 17.082,8.309 26.411,6.59 5.031,-0.988 10.39,-3.019 13.511,-7.301 2.258,-3.461 -0.679,-7.281 -3.218,-9.578 -0.141,2.641 1.66,6.367 -1.051,8.18 -11.582,2.539 -22.86,-2.93 -32.141,-9.371 -7.379,-5.18 -12.531,-12.981 -15.672,-21.328 -1.636,-4.512 -3.929,-9.024 -3.879,-13.91 1.262,-1.864 3.871,-1.524 5.84,-1.59 11.403,0.777 22.973,3.566 32.629,9.867 6.524,4.391 12.633,9.383 18.274,14.84 4.128,3.84 7.867,8.57 13.41,10.41 1.16,-4.801 -0.582,-9.641 -1.481,-14.328 -1.812,-8.379 -5.031,-16.68 -4.703,-25.36 -0.008,-2.429 3.024,-2.882 4.711,-1.812 1.949,1.351 3.449,3.242 5.262,4.781 -0.153,-7.851 -8.84,-12.422 -15.852,-10.648 -3.949,1.297 -4.679,6.136 -4.379,9.726 0.192,4.821 3,8.883 4.442,13.352 -6.231,-2.942 -10.383,-8.738 -16.024,-12.531 -11.797,-8.821 -26.718,-12.18 -41.199,-12.829 -5.187,-0.011 -11.879,0.282 -14.699,5.442 -2.129,5.019 -0.211,10.519 1.09,15.488 2.699,8.418 5.742,16.828 10.3,24.442 4.442,7.32 10.739,13.597 18.418,17.468 z" /><path
         id="path32"
         style="fill:#000000;fill-opacity:1;fill-rule:nonzero;stroke:none"
         d="m 571.66,127.141 c 1.238,4.75 2.11,9.847 5.27,13.789 2.41,-0.231 4.832,-0.442 7.242,-0.7 0.258,-5.929 -1.731,-11.589 -3.352,-17.199 -3.308,-10.832 -5.859,-21.902 -7.289,-33.14 -0.761,-4.45 -1.203,-9.121 -3.332,-13.172 -1.629,-2.489 -4.91,-1.289 -7.16,-0.528 -1.648,5.028 -0.309,10.329 0.621,15.368 2.641,11.863 5.301,23.722 8,35.582 z" /><path
         id="path34"
         style="fill:#000000;fill-opacity:1;fill-rule:nonzero;stroke:none"
         d="m 290.988,129.18 c 9.782,2.449 21.141,1.461 29.071,-5.258 4.652,-3.813 5.64,-10.211 5.601,-15.883 -0.199,-11.801 -3.051,-23.41 -7.211,-34.41 -1.219,-3.988 -3.027,-8.117 -2.379,-12.367 1.352,-2.582 4.129,-0.852 6.16,-0.34 -1.179,-3.453 -2.558,-8.723 -7.191,-8.422 -6.398,1.031 -11.398,6.961 -11.918,13.359 -1.359,13.313 4.969,25.871 5.289,39.071 0.031,2.672 -1.281,5.57 -4.012,6.379 -6.32,2.25 -13.968,3.171 -19.808,-0.797 -5.328,-3.621 -9.61,-8.563 -13.77,-13.434 -3.07,-3.539 -5.468,-8.098 -9.941,-10.066 -3.051,-1.172 -5.59,2.199 -5.129,5.008 0.691,7.539 4.82,14.199 8.578,20.582 5.723,9.367 16.391,14.097 26.66,16.578 z" /><path
         id="path36"
         style="fill:#000000;fill-opacity:1;fill-rule:nonzero;stroke:none"
         d="m 438.172,122.852 c 9.758,5.519 21.379,8.929 32.617,6.929 7.352,-1.543 15.563,-5.711 17.281,-13.722 2.168,-10.161 -0.082,-20.661 -2.48,-30.59 -1.809,-7.891 -6.192,-15.207 -6.442,-23.41 0.571,-3.239 4.172,-2.129 6.192,-1.047 -0.852,-3.184 -1.801,-7.352 -5.41,-8.41 -3.789,-0.551 -7.231,1.937 -9.719,4.519 -4.77,5.199 -4.441,12.899 -3.52,19.418 1.528,8.82 4.008,17.481 4.989,26.402 0.332,3.02 -0.391,6.911 -3.559,8.168 -6.699,2.629 -15.062,3.43 -21.121,-1.179 -6.82,-5.09 -12.148,-11.84 -17.371,-18.489 -1.938,-2.179 -4.289,-4.902 -7.508,-4.601 -2.172,0.59 -3.312,3.019 -3.133,5.129 0.153,3.551 1.532,6.89 2.91,10.101 3.743,8.008 8.274,16.309 16.274,20.782 z" /><path
         id="path38"
         style="fill:#000000;fill-opacity:1;fill-rule:nonzero;stroke:none"
         d="m 495.66,50.281 c 0.852,4.149 7.75,3.008 7.289,-1.211 0.11,-12.039 0.039,-24.082 0.039,-36.109 0.442,-2.77 -2.218,-5.43 -4.976,-4.422 -2.153,0.563 -2.41,2.941 -2.91,4.723 -4.063,-5.082 -12.012,-6.602 -17.313,-2.571 -6.391,4.95 -7.141,14.297 -5.019,21.559 1.839,6.281 8.8,9.949 15.089,8.539 2.969,-0.43 5.34,-2.398 7.539,-4.301 0.114,4.59 -0.449,9.242 0.262,13.793 z" /><path
         id="path40"
         style="fill:#000000;fill-opacity:1;fill-rule:nonzero;stroke:none"
         d="m 562.039,49.93 c 0.762,2.289 3.473,3.609 5.75,2.742 2,-0.633 2.492,-2.981 3.231,-4.684 3.289,-9.699 6.539,-19.41 9.808,-29.117 3.793,10.449 6.942,21.141 10.774,31.57 1.027,3.219 5.886,3.2 7.367,0.36 1.242,-1.992 -0.02,-4.262 -0.571,-6.262 -3.796,-10.199 -7.558,-20.418 -11.308,-30.648 -0.871,-2.422 -2.442,-5.09 -5.262,-5.422 -3.039,-0.649 -6.129,1.261 -7.078,4.172 -4.012,10.449 -7.68,21.039 -11.621,31.507 -0.609,1.864 -1.52,3.793 -1.09,5.782 z" /><path
         id="path42"
         style="fill:#000000;fill-opacity:1;fill-rule:nonzero;stroke:none"
         d="m 609.34,52.609 c 3,1.332 6.48,-1.379 6.09,-4.621 0.179,-10.988 0,-22 0.082,-33 -0.051,-2.269 -0.121,-5.316 -2.66,-6.258 -2.883,-1.378 -6.442,1.032 -6.133,4.231 -0.207,11 0,22.019 -0.098,33.027 -0.043,2.422 0.039,5.582 2.719,6.621 z" /><path
         id="path44"
         style="fill:#000000;fill-opacity:1;fill-rule:nonzero;stroke:none"
         d="m 685.391,52.488 c 3.238,1.371 7.238,-0.437 8.339,-3.789 4.149,-10.187 8.192,-20.429 12.36,-30.621 0.719,-1.898 1.59,-3.816 1.699,-5.887 -0.269,-3.261 -4.949,-5.23 -7.18,-2.601 -2.058,2.941 -2.929,6.5 -4.281,9.769 -5.707,0 -11.43,0.012 -17.137,-0.007 -1.429,-3.422 -2.191,-7.243 -4.472,-10.231 -2.981,-2.34 -7.969,1.078 -6.481,4.719 3.821,10.64 8.262,21.051 12.242,31.64 1.09,2.61 1.969,5.911 4.911,7.008 z" /><path
         id="path46"
         style="fill:#000000;fill-opacity:1;fill-rule:nonzero;stroke:none"
         d="m 629.379,51.559 c 3.082,0.98 6.402,0.41 9.59,0.562 5.941,-0.062 12.652,0.57 17.601,-3.41 5.961,-4.59 7.629,-12.66 7.239,-19.801 -0.207,-6.101 -2.231,-12.621 -7.297,-16.41 -4.41,-3.391 -10.242,-3.449 -15.543,-3.41 -3.629,0.101 -7.309,-0.289 -10.891,0.359 -2.519,0.5 -3.019,3.352 -2.957,5.492 -0.051,10.379 0,20.758 -0.031,31.129 0,1.989 0.18,4.571 2.289,5.489 z" /><path
         id="path48"
         style="fill:#ffffff;fill-opacity:1;fill-rule:nonzero;stroke:none"
         d="m 636,45 c 4.73,-0.148 9.93,0.738 14.219,-1.77 4.429,-3.199 4.871,-9.261 4.633,-14.269 C 654.559,24.5 653.219,19.18 648.781,17.141 644.719,15.59 640.25,16.41 636.012,16.23 635.988,25.82 636,35.41 636,45 z" /><path
         id="path50"
         style="fill:#ffffff;fill-opacity:1;fill-rule:nonzero;stroke:none"
         d="m 681.57,26.121 c 1.981,5.731 4.071,11.43 6.078,17.149 2.133,-5.7 4.204,-11.43 6.262,-17.161 -4.121,-0.007 -8.23,-0.007 -12.34,0.012 z" /><path
         id="path52"
         style="fill:#000000;fill-opacity:1;fill-rule:nonzero;stroke:none"
         d="m 512.801,33.309 c 3.398,7.332 13.051,9.441 20.129,6.703 5.761,-2.184 9.66,-8.852 8.07,-14.91 -0.738,-2.024 -3.25,-2.223 -5.07,-2.383 -5.61,-0.239 -11.231,0.043 -16.84,-0.129 0.582,-2.559 1.058,-5.469 3.32,-7.149 3.051,-2.492 7.762,-1.89 10.57,0.7 1.918,1.23 3.379,3.918 5.989,3.339 1.91,-0.359 2.402,-2.582 1.633,-4.128 -1.602,-3.883 -5.793,-5.903 -9.704,-6.641 -5.707,-0.992 -12.41,0.098 -16.289,4.777 -4.488,5.434 -4.648,13.582 -1.808,19.821 z" /><path
         id="path54"
         style="fill:#ffffff;fill-opacity:1;fill-rule:nonzero;stroke:none"
         d="m 485.27,34.59 c 4.441,1.609 8.71,-2.43 9.332,-6.66 1.019,-4.739 -0.102,-11.578 -5.551,-13 -4.5,-1.27 -8.481,2.761 -8.922,7.011 -0.77,4.571 0.16,10.86 5.141,12.649 z" /><path
         id="path56"
         style="fill:#ffffff;fill-opacity:1;fill-rule:nonzero;stroke:none"
         d="m 521.648,33.371 c 2.571,2.949 7.903,2.641 10.141,-0.582 1.121,-1.578 1.352,-3.559 1.82,-5.398 -4.82,-0.039 -9.64,-0.071 -14.461,0.039 0.614,2.05 0.922,4.351 2.5,5.941 z" /><path
         id="path58"
         style="fill:#000000;fill-opacity:1;fill-rule:nonzero;stroke:none"
         d="m 48.543,142.957 c -1.52,0.238 -4.336,1.652 -6.73,3.379 -1.786,1.289 -2.891,2.473 -7.59,8.113 -5.7,6.848 -6.192,7.371 -14.129,15.063 -2.156,2.09 -4.309,4.234 -4.778,4.765 l -0.859,0.969 0.004,1.512 c 0,2.691 0.562,3.453 3.23,4.383 3.399,1.187 7.661,1.832 21.325,3.238 10.39,1.066 10.347,1.062 10.211,1.246 -0.059,0.078 -2.739,1.945 -5.961,4.148 -7.942,5.43 -13.985,10.415 -17.235,14.215 -3.281,3.836 -5.976,9.86 -7.34,16.403 -0.703,3.371 -0.812,14.441 -0.16,16.422 0.36,1.105 1.332,1.996 2.164,1.992 1.125,-0.008 2.25,-0.692 8.145,-4.95 3.305,-2.386 6.586,-4.656 7.289,-5.042 1.641,-0.899 3.769,-1.79 5.246,-2.204 1.367,-0.382 3.836,-0.601 4.969,-0.441 0.961,0.133 0.875,-0.047 2.008,4.297 1.804,6.93 2.371,8.848 3.214,10.902 1.102,2.68 2.27,5.133 3.672,6.668 l 1.547,1.699 0.945,0.629 1.098,0.18 0.942,-0.383 1.148,-0.781 2.164,-3.676 c 3.504,-5.945 3.031,-5.515 13.141,-11.855 3.578,-2.243 8.097,-5.098 10.05,-6.344 3.094,-1.977 3.622,-2.254 4.137,-2.188 0.324,0.043 3.578,0.973 7.227,2.063 9.312,2.785 9.133,2.754 14.543,2.754 3.601,0.004 4.75,-0.055 6.109,-0.305 3.91,-0.719 8.012,-2.16 9.699,-3.406 1.024,-0.754 1.422,-1.57 1.207,-2.469 -0.136,-0.574 -0.312,-0.75 -5.586,-5.547 -5.168,-4.699 -5.523,-5.039 -6.32,-6.074 -1.305,-1.684 -1.742,-2.887 -4.504,-12.375 -0.863,-2.969 -1.805,-5.98 -2.094,-6.687 -2.269,-5.579 -7.648,-10.805 -11.164,-10.86 -1.351,-0.019 -1.968,0.531 -2.082,1.863 -0.109,1.274 0.098,1.786 2.813,6.961 3.101,5.918 3.117,5.954 5.219,13.461 0.761,2.727 1.574,5.442 1.804,6.032 0.707,1.816 2.157,4.05 5.262,8.089 2.543,3.305 2.934,3.899 2.656,4.028 -0.469,0.219 -6.781,-0.004 -8.527,-0.301 -2.223,-0.379 -3.785,-0.848 -6.609,-1.98 -2.942,-1.184 -4.098,-1.879 -9.997,-6.004 -2.355,-1.649 -4.507,-3.047 -4.789,-3.106 -0.277,-0.058 -1.23,-0.07 -2.117,-0.027 -1.363,0.066 -2.543,0.332 -7.527,1.695 -10.555,2.887 -10.934,2.965 -22.461,4.797 -11.625,1.848 -13.246,2.176 -16.352,3.328 -2.843,1.055 -4.48,1.906 -8.472,4.418 l -3.547,2.227 -0.059,-0.914 c -0.07,-1.075 0.438,-4.762 0.883,-6.422 1.117,-4.157 4.73,-11.008 7.43,-14.082 2.05,-2.336 7.215,-6.383 11.152,-8.746 2.449,-1.465 5.656,-3.051 10.445,-5.161 6.911,-3.046 7.852,-3.617 8.567,-5.191 0.781,-1.711 -0.317,-3.434 -3.512,-5.512 -2.574,-1.675 -7.312,-3.261 -12.168,-4.078 -1.426,-0.238 -6.266,-0.726 -11.605,-1.168 -5.039,-0.414 -9.418,-0.812 -9.735,-0.875 l -0.57,-0.121 1.656,-1.707 c 0.91,-0.941 2.703,-2.801 3.985,-4.129 1.312,-1.367 4.718,-5.41 7.808,-9.277 4.242,-5.301 5.777,-7.09 6.781,-7.899 0.797,-0.64 1.434,-1.023 1.645,-0.988 0.555,0.09 1.137,1.168 3.316,6.117 1.129,2.571 2.489,5.414 3.028,6.325 1.195,2.023 3.722,4.671 6.933,7.265 3.028,2.445 4.778,3.211 6.063,2.652 0.754,-0.328 1.094,-1.269 0.945,-2.636 -0.117,-1.09 -1.019,-2.719 -4.359,-7.856 -2.168,-3.336 -3.086,-5.004 -6.852,-12.476 -3.875,-7.692 -3.937,-7.793 -4.836,-8.004 -0.738,-0.172 -2.273,-0.195 -3.199,-0.051 z m 34.191,76.535 c 0.344,0.469 -2.433,3.051 -5.925,5.508 -3.7,2.602 -18.797,12.156 -19.204,12.156 -0.281,0 -0.57,-1.527 -0.886,-4.66 -0.356,-3.516 -0.645,-7.289 -0.563,-7.379 0.047,-0.054 4.172,-1 20.461,-4.699 4.762,-1.078 5.879,-1.25 6.117,-0.926 z" /></g></g></svg>