<?xml version="1.0" encoding="UTF-8" standalone="no"?>
<svg
   xmlns:dc="http://purl.org/dc/elements/1.1/"
   xmlns:cc="http://creativecommons.org/ns#"
   xmlns:rdf="http://www.w3.org/1999/02/22-rdf-syntax-ns#"
   xmlns:svg="http://www.w3.org/2000/svg"
   xmlns="http://www.w3.org/2000/svg"
   xmlns:sodipodi="http://sodipodi.sourceforge.net/DTD/sodipodi-0.dtd"
   xmlns:inkscape="http://www.inkscape.org/namespaces/inkscape"
   width="739pt"
   height="255pt"
   viewBox="0 0 739 255"
   version="1.1"
   id="svg3119"
   inkscape:version="0.48.2 r9819"
   sodipodi:docname="_LOGO_OK_2.svg">
  <metadata
     id="metadata3171">
    <rdf:RDF>
      <cc:Work
         rdf:about="">
        <dc:format>image/svg+xml</dc:format>
        <dc:type
           rdf:resource="http://purl.org/dc/dcmitype/StillImage" />
        <dc:title></dc:title>
      </cc:Work>
    </rdf:RDF>
  </metadata>
  <defs
     id="defs3169" />
  <sodipodi:namedview
     pagecolor="#ffffff"
     bordercolor="#666666"
     borderopacity="1"
     objecttolerance="10"
     gridtolerance="10"
     guidetolerance="10"
     inkscape:pageopacity="0"
     inkscape:pageshadow="2"
     inkscape:window-width="1366"
     inkscape:window-height="702"
     id="namedview3167"
     showgrid="false"
     inkscape:zoom="0.90509668"
     inkscape:cx="434.05612"
     inkscape:cy="181.32977"
     inkscape:window-x="-8"
     inkscape:window-y="-8"
     inkscape:window-maximized="1"
     inkscape:current-layer="svg3119" />
  <path
     fill="#ffffff"
     d=" M 0.00 0.00 L 58.67 0.00 C 58.66 0.62 58.62 1.87 58.60 2.49 L 57.39 2.54 C 57.44 3.84 57.49 5.13 57.55 6.43 C 57.05 6.77 56.06 7.47 55.57 7.81 C 54.96 10.57 54.42 13.34 53.83 16.10 C 52.05 20.73 52.60 25.73 52.50 30.57 C 48.20 30.64 43.73 30.69 39.81 28.64 C 39.25 28.59 38.14 28.48 37.58 28.42 C 37.51 27.78 37.36 26.50 37.29 25.86 C 36.19 25.72 35.09 25.59 33.99 25.46 C 31.68 22.76 29.16 20.24 26.92 17.49 C 26.56 17.53 25.84 17.59 25.48 17.62 C 25.46 16.32 25.44 15.02 25.43 13.72 C 24.48 13.53 23.53 13.33 22.58 13.13 C 22.77 18.43 22.41 23.74 22.63 29.03 C 23.05 32.53 23.79 35.99 23.85 39.53 C 24.27 39.51 25.11 39.47 25.53 39.44 C 25.59 41.14 25.65 42.84 25.70 44.54 C 26.07 44.53 26.80 44.53 27.16 44.52 C 27.70 47.40 28.69 50.21 30.48 52.56 C 35.57 59.45 42.12 65.30 49.59 69.51 C 52.31 71.14 55.45 71.70 58.58 71.74 C 58.52 72.58 58.46 73.41 58.40 74.25 C 54.76 76.66 50.39 77.77 46.03 77.52 C 39.62 77.17 33.35 78.86 26.94 78.69 C 24.46 80.56 21.33 80.65 18.35 80.75 C 18.34 82.11 18.33 83.47 18.32 84.84 C 21.36 88.09 25.01 90.66 28.34 93.55 C 31.28 98.38 35.30 102.44 37.97 107.43 C 39.84 113.61 44.65 118.28 50.13 121.41 C 51.18 121.40 52.23 121.39 53.28 121.38 C 53.33 120.16 53.39 118.93 53.45 117.71 C 53.71 117.33 54.24 116.57 54.51 116.19 C 54.57 115.34 54.70 113.63 54.76 112.78 C 58.52 107.21 58.99 99.86 63.84 94.96 C 65.18 93.29 67.18 91.96 67.66 89.77 C 66.14 86.90 63.67 89.86 62.31 91.33 C 56.88 98.69 53.32 107.57 52.32 116.67 C 50.83 116.65 49.34 116.63 47.85 116.61 C 44.12 112.54 39.95 108.32 39.29 102.55 C 36.37 99.69 33.93 96.42 32.03 92.80 C 30.19 89.17 26.06 87.85 22.70 86.04 C 22.60 84.90 22.50 83.76 22.39 82.63 C 32.77 82.56 43.02 80.35 53.40 80.41 C 54.14 79.81 54.87 79.20 55.60 78.60 C 56.12 78.49 57.16 78.29 57.67 78.19 C 59.18 76.97 60.75 75.83 62.41 74.82 C 62.51 73.40 62.59 71.97 62.67 70.54 C 61.99 70.50 60.63 70.42 59.95 70.38 C 48.99 66.52 39.50 59.34 31.87 50.67 C 31.55 49.31 31.10 47.98 30.09 46.96 C 29.25 45.85 28.47 44.69 27.76 43.49 C 27.61 42.11 27.43 40.73 27.26 39.35 C 26.68 38.67 26.10 37.98 25.51 37.30 C 25.44 34.32 25.38 31.34 25.35 28.37 C 24.86 28.48 23.87 28.70 23.38 28.82 C 23.37 25.60 23.33 22.39 23.29 19.18 C 24.24 19.28 26.14 19.47 27.08 19.57 C 30.43 26.96 38.25 31.35 45.98 32.80 C 49.51 33.96 53.27 33.41 56.88 34.04 C 65.58 35.49 74.61 37.21 81.92 42.49 C 82.72 42.53 84.34 42.60 85.15 42.63 C 88.80 38.13 92.71 33.51 98.03 30.93 C 100.35 29.73 103.31 29.77 105.15 27.72 C 110.27 27.47 115.40 27.63 120.53 27.59 C 120.52 28.87 120.51 30.15 120.51 31.43 C 119.90 31.50 118.68 31.62 118.07 31.69 C 114.53 35.39 110.65 38.93 108.66 43.77 C 108.56 44.57 108.36 46.18 108.26 46.98 C 106.41 52.26 107.20 58.06 105.05 63.25 C 103.57 67.86 99.76 71.15 97.89 75.56 C 99.05 75.57 100.21 75.58 101.37 75.59 C 104.02 72.40 106.32 68.95 108.27 65.30 C 109.46 59.86 110.41 54.37 110.88 48.82 C 112.23 40.19 119.50 34.27 126.53 30.02 C 126.53 29.26 126.52 28.50 126.51 27.75 C 125.86 27.65 124.57 27.47 123.92 27.37 C 117.08 23.43 108.84 24.23 101.43 25.81 C 100.74 26.34 100.06 26.87 99.37 27.41 C 98.81 27.50 97.69 27.68 97.13 27.77 C 96.74 28.11 95.95 28.80 95.55 29.14 C 94.02 29.91 92.52 30.73 91.05 31.60 C 90.09 31.53 89.13 31.46 88.17 31.38 C 85.46 26.11 80.36 22.83 75.55 19.68 C 75.02 19.58 73.95 19.40 73.42 19.30 C 72.39 18.41 71.36 17.51 70.34 16.62 C 69.71 16.60 68.47 16.57 67.84 16.55 C 65.98 14.22 64.22 11.81 62.56 9.33 C 62.55 8.61 62.53 7.16 62.52 6.44 C 61.81 5.79 61.09 5.15 60.38 4.50 C 60.50 3.00 60.65 1.50 60.82 0.00 L 739.00 0.00 L 739.00 255.00 L 0.00 255.00 L 0.00 0.00 Z"
     id="path3121" />
  <path
     fill="#ffffff"
     d=" M 57.08 8.35 C 58.02 8.37 59.91 8.39 60.85 8.40 C 60.71 8.93 60.43 9.99 60.29 10.52 L 61.51 10.39 C 61.51 11.81 61.51 13.23 61.52 14.65 C 62.02 14.59 63.02 14.45 63.52 14.38 C 63.48 14.95 63.40 16.09 63.35 16.66 C 63.92 16.61 65.06 16.51 65.62 16.46 C 65.57 16.96 65.47 17.95 65.42 18.45 C 66.20 18.47 67.76 18.51 68.54 18.52 L 68.47 19.88 C 68.90 19.75 69.76 19.47 70.19 19.34 C 70.17 21.38 72.04 21.43 73.58 21.68 L 73.39 22.41 C 78.28 24.37 81.77 28.70 85.32 32.44 C 85.65 33.12 86.32 34.49 86.65 35.17 C 85.64 36.28 84.62 37.39 83.60 38.50 C 83.14 38.48 82.21 38.43 81.75 38.41 C 80.49 37.45 79.19 36.43 77.55 36.30 L 77.40 35.70 C 75.46 35.09 73.50 34.52 71.47 34.27 L 71.42 33.20 C 70.92 33.37 69.94 33.71 69.44 33.88 L 69.63 32.54 C 67.21 32.51 64.80 32.46 62.39 32.46 L 62.62 31.51 C 60.14 31.54 57.67 31.52 55.20 31.52 L 55.87 30.17 L 54.46 30.76 C 54.50 26.58 54.57 22.39 54.47 18.21 L 55.86 18.63 C 55.66 18.08 55.25 16.96 55.05 16.40 C 55.40 16.42 56.09 16.46 56.44 16.49 C 56.45 14.05 56.48 11.61 56.48 9.17 L 57.97 9.82 L 57.08 8.35 Z"
     id="path3125" />
  <path
     fill="#0099cc"
     d=" M 147.40 24.58 C 151.23 23.13 155.98 24.02 158.47 27.43 C 162.65 32.28 162.15 39.08 162.26 45.06 C 161.48 69.60 156.99 93.80 154.14 118.15 C 151.21 143.01 149.02 168.02 149.09 193.07 C 149.38 203.74 149.36 214.57 152.00 224.99 C 153.00 228.51 154.31 232.72 158.07 234.17 C 159.51 234.90 161.79 234.92 162.18 232.92 C 162.66 228.39 160.49 224.10 160.44 219.59 C 162.76 221.41 163.94 224.15 165.25 226.70 C 167.20 230.58 169.03 234.71 169.01 239.14 C 169.04 242.97 165.56 246.05 161.90 246.42 C 154.78 247.15 147.44 244.56 142.05 239.94 C 137.17 234.33 136.60 226.44 135.84 219.37 C 134.88 200.91 135.02 182.43 135.39 163.96 C 135.83 148.31 137.84 132.72 141.24 117.44 C 144.27 102.14 147.59 86.90 150.44 71.57 C 151.82 62.80 153.53 53.78 151.87 44.93 C 151.60 42.61 149.98 40.93 147.87 40.10 C 145.97 41.83 144.18 43.71 142.81 45.89 C 130.92 64.54 123.89 85.90 111.10 104.01 C 108.75 106.92 106.21 110.64 102.12 110.93 C 99.55 111.26 96.37 110.32 95.34 107.71 C 94.27 105.10 93.85 102.21 92.12 99.91 C 89.33 104.13 88.52 109.20 87.41 114.04 C 85.92 120.98 84.92 128.55 87.76 135.30 C 88.72 137.91 90.42 140.97 88.67 143.64 C 86.61 146.44 82.57 148.14 79.22 146.85 C 76.19 144.60 76.06 140.39 75.97 136.96 C 75.93 125.04 77.75 113.17 80.47 101.60 C 82.06 95.78 83.75 89.52 88.28 85.23 C 90.79 82.88 95.13 81.30 98.04 83.89 C 100.20 86.04 100.99 89.15 102.87 91.52 C 107.36 88.07 109.16 82.48 111.37 77.50 C 117.14 62.78 124.13 48.35 133.81 35.77 C 137.59 31.28 141.73 26.61 147.40 24.58 Z"
     id="path3127"
     style="fill:#009acc;fill-opacity:1;stroke:none" />
  <path
     fill="#0099cc"
     d=" M 710.44 61.37 C 712.14 56.96 713.64 52.28 717.00 48.81 C 719.54 52.33 717.87 56.90 717.61 60.86 C 712.98 88.24 704.98 114.89 698.64 141.89 C 696.49 151.36 693.80 160.75 692.78 170.43 C 697.54 170.87 701.11 167.15 705.40 165.78 C 702.51 171.74 696.93 176.17 691.00 178.88 C 688.16 180.06 683.92 181.19 681.83 178.18 C 679.11 173.86 680.40 168.51 681.52 163.89 C 686.93 142.66 692.76 121.54 698.51 100.40 C 702.16 87.29 705.83 74.17 710.44 61.37 Z"
     id="path3129" />
  <path
     fill="#0099cc"
     d=" M 536.35 57.10 C 540.11 54.89 543.59 58.87 546.42 60.91 C 546.26 77.10 539.60 92.11 534.68 107.24 C 543.25 107.40 551.29 101.90 559.96 104.13 C 562.84 104.75 564.17 107.60 565.39 109.98 C 561.58 111.53 558.45 114.44 554.43 115.46 C 545.71 117.74 537.02 120.09 528.32 122.39 C 523.64 139.05 516.40 155.85 518.72 173.53 C 527.54 173.55 529.39 162.44 536.06 158.81 C 539.87 159.85 539.80 165.42 539.86 168.63 C 536.57 173.89 533.16 179.41 528.01 183.05 C 524.16 185.74 518.66 187.07 514.46 184.50 C 508.67 178.99 506.23 170.79 506.21 162.96 C 506.31 149.82 511.30 137.32 511.88 124.23 C 509.53 121.59 504.43 118.37 507.21 114.36 C 510.22 112.82 513.71 112.82 516.98 112.23 C 524.15 97.37 531.96 82.37 534.40 65.85 C 535.02 62.95 534.36 59.53 536.35 57.10 Z"
     id="path3131" />
  <path
     fill="#0099cc"
     d=" M 590.01 71.02 C 592.20 68.67 595.88 71.09 595.96 73.90 C 596.40 81.48 589.88 87.46 590.25 95.03 C 590.46 98.86 595.65 99.26 596.24 102.91 C 592.02 102.59 586.73 102.76 583.73 99.29 C 581.06 94.61 582.76 88.92 583.95 84.04 C 585.38 79.50 586.61 74.53 590.01 71.02 Z"
     id="path3133" />
  <path
     fill="#0099cc"
     d=" M 208.05 111.08 C 216.02 108.11 225.40 108.58 232.65 113.22 C 234.75 114.58 237.08 116.37 237.36 119.06 C 237.68 122.09 235.42 124.51 233.35 126.38 C 233.24 123.82 235.28 119.52 231.98 118.20 C 225.50 117.11 218.64 117.87 212.66 120.65 C 205.63 123.84 198.72 127.79 193.57 133.66 C 187.50 140.32 184.28 148.94 181.51 157.36 C 181.13 159.38 179.92 161.78 181.23 163.68 C 183.61 164.79 186.33 164.53 188.88 164.33 C 194.92 163.72 200.92 162.56 206.68 160.61 C 219.18 156.47 229.23 147.46 238.63 138.59 C 242.44 135.20 245.80 130.55 251.10 129.56 C 251.68 143.06 244.27 155.53 244.64 169.00 C 244.48 171.69 247.94 171.93 249.61 170.67 C 251.38 169.32 252.86 167.62 254.52 166.14 C 254.49 174.16 245.27 178.74 238.28 176.56 C 234.42 174.77 234.02 169.83 234.45 166.13 C 234.80 161.66 237.62 157.96 238.58 153.67 C 233.70 156.16 230.10 160.40 225.88 163.79 C 218.09 170.27 208.69 174.78 198.75 176.77 C 191.03 178.34 183.06 179.74 175.17 178.62 C 171.37 178.09 167.21 175.99 166.28 171.94 C 165.27 166.65 167.03 161.35 168.52 156.32 C 172.09 145.78 176.05 134.99 183.51 126.51 C 189.87 118.97 198.98 114.48 208.05 111.08 Z"
     id="path3135" />
  <path
     fill="#0099cc"
     d=" M 371.15 111.15 C 379.56 107.94 389.59 108.64 397.02 113.94 C 398.99 115.33 400.89 117.48 400.66 120.07 C 400.40 122.68 398.50 124.69 396.72 126.44 C 396.68 124.09 397.52 121.59 396.74 119.31 C 394.86 117.16 391.57 117.94 389.04 117.76 C 380.61 117.60 372.97 121.72 365.98 125.97 C 357.69 131.01 351.62 139.12 348.18 148.11 C 346.41 152.93 343.88 157.75 343.98 163.00 C 345.38 164.76 347.97 164.44 349.99 164.49 C 361.80 163.63 373.82 160.63 383.66 153.78 C 390.90 148.77 397.60 142.99 403.80 136.74 C 406.90 133.84 409.95 130.42 414.28 129.49 C 414.98 138.91 411.14 147.86 409.33 156.97 C 408.52 161.45 407.00 166.19 408.39 170.69 C 412.30 173.19 415.18 168.23 417.84 166.16 C 417.75 174.18 408.54 178.76 401.55 176.53 C 397.96 175.00 397.43 170.51 397.66 167.09 C 397.80 162.25 400.62 158.18 402.07 153.71 C 397.52 155.66 394.26 159.51 390.55 162.63 C 377.67 174.23 359.99 178.82 343.00 179.01 C 338.39 178.89 332.71 178.17 330.24 173.70 C 327.97 168.71 329.97 163.12 331.24 158.13 C 334.94 146.82 339.04 135.16 347.12 126.15 C 353.42 118.87 362.28 114.47 371.15 111.15 Z"
     id="path3137" />
  <path
     fill="#0099cc"
     d=" M 619.15 116.18 C 627.20 111.93 636.23 107.87 645.56 109.59 C 650.59 110.58 655.95 112.61 659.07 116.89 C 661.33 120.35 658.39 124.17 655.85 126.47 C 655.71 123.83 657.51 120.10 654.80 118.29 C 643.22 115.75 631.94 121.22 622.66 127.66 C 615.28 132.84 610.13 140.64 606.99 148.99 C 605.35 153.50 603.06 158.01 603.11 162.90 C 604.37 164.76 606.98 164.42 608.95 164.49 C 620.35 163.71 631.92 160.92 641.58 154.62 C 648.10 150.23 654.21 145.24 659.85 139.78 C 663.98 135.94 667.72 131.21 673.26 129.37 C 674.42 134.17 672.68 139.01 671.78 143.70 C 669.97 152.08 666.75 160.38 667.08 169.06 C 667.07 171.49 670.10 171.94 671.79 170.87 C 673.74 169.52 675.24 167.63 677.05 166.09 C 676.90 173.94 668.21 178.51 661.20 176.74 C 657.25 175.44 656.52 170.60 656.82 167.01 C 657.01 162.19 659.82 158.13 661.26 153.66 C 655.03 156.60 650.88 162.40 645.24 166.19 C 633.44 175.01 618.52 178.37 604.04 179.02 C 598.85 179.03 592.16 178.74 589.34 173.58 C 587.21 168.56 589.13 163.06 590.43 158.09 C 593.13 149.67 596.17 141.26 600.73 133.65 C 605.17 126.33 611.47 120.05 619.15 116.18 Z"
     id="path3139" />
  <path
     fill="#0099cc"
     d=" M 571.66 127.86 C 572.90 123.11 573.77 118.01 576.93 114.07 C 579.34 114.30 581.76 114.51 584.17 114.77 C 584.43 120.70 582.44 126.36 580.82 131.97 C 577.51 142.80 574.96 153.87 573.53 165.11 C 572.77 169.56 572.33 174.23 570.20 178.28 C 568.57 180.77 565.29 179.57 563.04 178.81 C 561.39 173.78 562.73 168.48 563.66 163.44 C 566.30 151.58 568.96 139.72 571.66 127.86 Z"
     id="path3141" />
  <path
     fill="#0099cc"
     d=" M 290.99 125.82 C 300.77 123.37 312.13 124.36 320.06 131.08 C 324.71 134.89 325.70 141.29 325.66 146.96 C 325.46 158.76 322.61 170.37 318.45 181.37 C 317.23 185.36 315.42 189.49 316.07 193.74 C 317.42 196.32 320.20 194.59 322.23 194.08 C 321.05 197.53 319.67 202.80 315.04 202.50 C 308.64 201.47 303.64 195.54 303.12 189.14 C 301.76 175.83 308.09 163.27 308.41 150.07 C 308.44 147.40 307.13 144.50 304.40 143.69 C 298.08 141.44 290.43 140.52 284.59 144.49 C 279.26 148.11 274.98 153.05 270.82 157.92 C 267.75 161.46 265.35 166.02 260.88 167.99 C 257.83 169.16 255.29 165.79 255.75 162.98 C 256.44 155.44 260.57 148.78 264.33 142.40 C 270.05 133.03 280.72 128.30 290.99 125.82 Z"
     id="path3143" />
  <path
     fill="#0099cc"
     d=" M 438.17 132.15 C 447.93 126.63 459.55 123.22 470.79 125.22 C 478.14 126.76 486.35 130.93 488.07 138.94 C 490.24 149.10 487.99 159.60 485.59 169.53 C 483.78 177.42 479.40 184.74 479.15 192.94 C 479.72 196.18 483.32 195.07 485.34 193.99 C 484.49 197.17 483.54 201.34 479.93 202.40 C 476.14 202.95 472.70 200.46 470.21 197.88 C 465.44 192.68 465.77 184.98 466.69 178.46 C 468.22 169.64 470.70 160.98 471.68 152.06 C 472.01 149.04 471.29 145.15 468.12 143.89 C 461.42 141.26 453.06 140.46 447.00 145.07 C 440.18 150.16 434.85 156.91 429.63 163.56 C 427.69 165.74 425.34 168.46 422.12 168.16 C 419.95 167.57 418.81 165.14 418.99 163.03 C 419.14 159.48 420.52 156.14 421.90 152.93 C 425.64 144.92 430.17 136.62 438.17 132.15 Z"
     id="path3145" />
  <path
     fill="#666666"
     d=" M 495.66 204.72 C 496.51 200.57 503.41 201.71 502.95 205.93 C 503.06 217.97 502.99 230.01 502.99 242.04 C 503.43 244.81 500.77 247.47 498.01 246.46 C 495.86 245.90 495.60 243.52 495.10 241.74 C 491.04 246.82 483.09 248.34 477.79 244.31 C 471.40 239.36 470.65 230.01 472.77 222.75 C 474.61 216.47 481.57 212.80 487.86 214.21 C 490.83 214.64 493.20 216.61 495.40 218.51 C 495.51 213.92 494.95 209.27 495.66 204.72 Z"
     id="path3147" />
  <path
     fill="#666666"
     d=" M 562.04 205.07 C 562.80 202.78 565.51 201.46 567.79 202.33 C 569.79 202.96 570.28 205.31 571.02 207.01 C 574.31 216.71 577.56 226.42 580.83 236.13 C 584.62 225.68 587.77 214.99 591.60 204.56 C 592.63 201.34 597.49 201.36 598.97 204.20 C 600.21 206.19 598.95 208.46 598.40 210.46 C 594.60 220.66 590.84 230.88 587.09 241.11 C 586.22 243.53 584.65 246.20 581.83 246.53 C 578.79 247.18 575.70 245.27 574.75 242.36 C 570.74 231.91 567.07 221.32 563.13 210.85 C 562.52 208.99 561.61 207.06 562.04 205.07 Z"
     id="path3149" />
  <path
     fill="#666666"
     d=" M 609.34 202.39 C 612.34 201.06 615.82 203.77 615.43 207.01 C 615.61 218.00 615.43 229.01 615.51 240.01 C 615.46 242.28 615.39 245.33 612.85 246.27 C 609.97 247.65 606.41 245.24 606.72 242.04 C 606.51 231.04 606.72 220.02 606.62 209.01 C 606.58 206.59 606.66 203.43 609.34 202.39 Z"
     id="path3151" />
  <path
     fill="#666666"
     d=" M 685.39 202.51 C 688.63 201.14 692.63 202.95 693.73 206.30 C 697.88 216.49 701.92 226.73 706.09 236.92 C 706.81 238.82 707.68 240.74 707.79 242.81 C 707.52 246.07 702.84 248.04 700.61 245.41 C 698.55 242.47 697.68 238.91 696.33 235.64 C 690.62 235.64 684.90 235.63 679.19 235.65 C 677.76 239.07 677.00 242.89 674.72 245.88 C 671.74 248.22 666.75 244.80 668.24 241.16 C 672.06 230.52 676.50 220.11 680.48 209.52 C 681.57 206.91 682.45 203.61 685.39 202.51 Z"
     id="path3153" />
  <path
     fill="#666666"
     d=" M 629.38 203.44 C 632.46 202.46 635.78 203.03 638.97 202.88 C 644.91 202.94 651.62 202.31 656.57 206.29 C 662.53 210.88 664.20 218.95 663.81 226.09 C 663.60 232.19 661.58 238.71 656.51 242.50 C 652.10 245.89 646.27 245.95 640.97 245.91 C 637.34 245.81 633.66 246.20 630.08 245.55 C 627.56 245.05 627.06 242.20 627.12 240.06 C 627.07 229.68 627.12 219.30 627.09 208.93 C 627.09 206.94 627.27 204.36 629.38 203.44 Z"
     id="path3155" />
  <path
     fill="#ffffff"
     d=" M 636.00 210.00 C 640.73 210.15 645.93 209.26 650.22 211.77 C 654.65 214.97 655.09 221.03 654.85 226.04 C 654.56 230.50 653.22 235.82 648.78 237.86 C 644.72 239.41 640.25 238.59 636.01 238.77 C 635.99 229.18 636.00 219.59 636.00 210.00 Z"
     id="path3157" />
  <path
     fill="#ffffff"
     d=" M 681.57 228.88 C 683.55 223.15 685.64 217.45 687.65 211.73 C 689.78 217.43 691.85 223.16 693.91 228.89 C 689.79 228.90 685.68 228.90 681.57 228.88 Z"
     id="path3159" />
  <path
     fill="#666666"
     d=" M 512.80 221.69 C 516.20 214.36 525.85 212.25 532.93 214.99 C 538.69 217.17 542.59 223.84 541.00 229.90 C 540.26 231.92 537.75 232.12 535.93 232.28 C 530.32 232.52 524.70 232.24 519.09 232.41 C 519.67 234.97 520.15 237.88 522.41 239.56 C 525.46 242.05 530.17 241.45 532.98 238.86 C 534.90 237.63 536.36 234.94 538.97 235.52 C 540.88 235.88 541.37 238.10 540.60 239.65 C 539.00 243.53 534.81 245.55 530.90 246.29 C 525.19 247.28 518.49 246.19 514.61 241.51 C 510.12 236.08 509.96 227.93 512.80 221.69 Z"
     id="path3161" />
  <path
     fill="#ffffff"
     d=" M 485.27 220.41 C 489.71 218.80 493.98 222.84 494.60 227.07 C 495.62 231.81 494.50 238.65 489.05 240.07 C 484.55 241.34 480.57 237.31 480.13 233.06 C 479.36 228.49 480.29 222.20 485.27 220.41 Z"
     id="path3163" />
  <path
     fill="#ffffff"
     d=" M 521.65 221.63 C 524.22 218.68 529.55 218.99 531.79 222.21 C 532.91 223.79 533.14 225.77 533.61 227.61 C 528.79 227.65 523.97 227.68 519.15 227.57 C 519.76 225.52 520.07 223.22 521.65 221.63 Z"
     id="path3165" />
  <path
     style="fill:#009acc;fill-opacity:1;stroke:none"
     d="m 48.543593,112.04384 c -1.518355,-0.23745 -4.335757,-1.65277 -6.731556,-3.38157 -1.783963,-1.28732 -2.890315,-2.47007 -7.58744,-8.11139 C 28.522868,93.702993 28.03102,93.178736 20.092961,85.488152 17.936108,83.398546 15.785916,81.253271 15.314753,80.720873 l -0.856658,-0.967994 0.0011,-1.509802 c 0.0019,-2.691557 0.562831,-3.452098 3.233134,-4.384123 3.395886,-1.185276 7.657382,-1.832105 21.322352,-3.236397 C 49.406324,69.55465 49.363294,69.559905 49.227087,69.37512 49.168977,69.29633 46.486656,67.430216 43.266329,65.22822 35.324639,59.797888 29.281423,54.813307 26.029398,51.010851 22.749592,47.175911 20.054174,41.153296 18.689543,34.610754 17.986513,31.240171 17.87861,20.167248 18.529489,18.186213 c 0.36217,-1.102314 1.333519,-1.995478 2.164315,-1.99011 1.128111,0.0073 2.251918,0.689944 8.146863,4.948823 3.305047,2.387771 6.585471,4.656719 7.289822,5.04211 1.639683,0.89716 3.766244,1.791327 5.242929,2.204526 1.367051,0.382522 3.838783,0.60247 4.969902,0.442248 0.960236,-0.136017 0.875494,0.04548 2.007485,-4.299424 1.805078,-6.92836 2.370575,-8.845542 3.215771,-10.9023 1.10023,-2.677402 2.26804,-5.1310094 3.671012,-6.6690874 l 1.549281,-1.6984766 0.944745,-0.6297496 1.096704,-0.1772437 0.942085,0.382339 1.146823,0.7806808 2.165855,3.6753966 c 3.503252,5.9449219 3.028628,5.5166799 13.141423,11.8572909 3.575957,2.242081 8.097619,5.09584 10.048139,6.341685 3.09613,1.977577 3.62144,2.25532 4.13746,2.187563 0.32509,-0.04269 3.57652,-0.970642 7.22541,-2.062125 9.312867,-2.785733 9.134697,-2.751996 14.545557,-2.753977 3.60027,-0.0013 4.74758,0.05622 6.10768,0.306298 3.90983,0.718893 8.01346,2.158921 9.6993,3.403636 1.02312,0.7554 1.42286,1.57332 1.20838,2.472443 -0.13613,0.570631 -0.314,0.747114 -5.58808,5.544232 -5.16875,4.701311 -5.52229,5.041026 -6.32116,6.073869 -1.30321,1.68489 -1.74097,2.888563 -4.50051,12.374734 -0.86379,2.969383 -1.80714,5.979904 -2.09631,6.690047 -2.2704,5.575581 -7.64684,10.804981 -11.163234,10.85795 -1.35266,0.02038 -1.967593,-0.52943 -2.082563,-1.862038 -0.10991,-1.274004 0.097,-1.786291 2.811497,-6.961406 3.10357,-5.916879 3.11849,-5.955381 5.21995,-13.462688 0.76294,-2.725576 1.57492,-5.438761 1.80438,-6.029303 0.70674,-1.818927 2.15873,-4.050351 5.26355,-8.089009 2.54222,-3.306867 2.93266,-3.899128 2.65605,-4.028914 -0.47002,-0.220534 -6.78221,0.002 -8.52992,0.300692 -2.22037,0.379497 -3.78474,0.848772 -6.60588,1.981612 -2.942247,1.181471 -4.101217,1.877619 -9.996237,6.004326 -2.35541,1.648874 -4.51038,3.045891 -4.78882,3.104481 -0.27843,0.05859 -1.23272,0.07115 -2.120634,0.02791 C 81.797414,43.508984 80.616687,43.24307 75.63344,41.880537 65.076196,38.99394 64.697561,38.913048 53.172952,37.081999 41.546979,35.234842 39.923991,34.904572 36.820116,33.754259 33.974938,32.699822 32.33898,31.846973 28.348155,29.33769 l -3.546396,-2.229845 -0.05959,0.916248 c -0.06984,1.073862 0.437167,4.762706 0.882624,6.421472 1.115794,4.155136 4.731376,11.007292 7.429453,14.08016 2.051137,2.336061 7.213962,6.384365 11.154203,8.746311 2.447628,1.467213 5.652971,3.051943 10.442174,5.162637 6.912651,3.046538 7.85341,3.616167 8.56987,5.189053 0.77912,1.71045 -0.319916,3.434446 -3.514095,5.512348 -2.575389,1.675364 -7.311176,3.262599 -12.166339,4.077632 -1.424867,0.239193 -6.267538,0.726644 -11.606549,1.168285 -5.038842,0.416811 -9.418417,0.811629 -9.732387,0.877373 l -0.570852,0.119537 1.65448,1.708564 c 0.909963,0.939711 2.702434,2.797463 3.98326,4.128337 1.313064,1.364357 4.719537,5.409775 7.8101,9.275015 4.240639,5.303593 5.775669,7.091723 6.781808,7.900033 0.796459,0.63986 1.43377,1.02327 1.644342,0.98927 0.553129,-0.0893 1.138113,-1.16946 3.314303,-6.119746 1.12895,-2.568059 2.491467,-5.412549 3.027818,-6.321074 1.195316,-2.024749 3.722498,-4.673421 6.934804,-7.268199 3.026085,-2.444353 4.776658,-3.210146 6.06319,-2.652356 0.754312,0.327042 1.092448,1.270141 0.945875,2.638172 -0.116653,1.088777 -1.021392,2.71836 -4.362008,7.856613 -2.16819,3.33494 -3.083082,5.00143 -6.849004,12.4755 -3.875141,7.69083 -3.93746,7.79393 -4.838095,8.00364 -0.7358,0.17132 -2.272013,0.19591 -3.19755,0.0511 z M 82.733308,35.509745 c 0.346447,-0.469984 -2.431504,-3.053033 -5.924629,-5.508946 -3.699453,-2.600978 -18.79538,-12.156462 -19.205008,-12.156462 -0.279221,0 -0.569544,1.526747 -0.88588,4.658612 -0.355267,3.517259 -0.642913,7.290101 -0.562634,7.379585 0.0497,0.05539 4.172676,1.001975 20.463432,4.698153 4.761582,1.080343 5.878144,1.249992 6.114719,0.929058 z"
     id="path4304"
     inkscape:connector-curvature="0"
     sodipodi:nodetypes="cssssccsscsssssssssssscccccssscsssscssssssssssscsssssssscscsssssssscsssscsssssssccccssscsc" />
  <path
     style="fill:#00ffff;stroke:#00ffff;stroke-width:0.67132992;stroke-opacity:1"
     d=""
     id="path3970"
     inkscape:connector-curvature="0"
     transform="scale(0.8,0.8)" />
  <g
     inkscape:groupmode="layer"
     id="layer1"
     inkscape:label="Paloma"
     style="display:inline" />
</svg>
